<svg xmlns="http://www.w3.org/2000/svg" viewBox="0 0 38.28 22.78"><defs><style>.cls-1{fill:#7f54b3;fill-rule:evenodd;}</style></defs><g id="Layer_2"><g id="Layer_1-2"><path class="cls-1" d="M34.71,0H3.55A3.55,3.55,0,0,0,0,3.57V15.46A3.57,3.57,0,0,0,3.57,19H18.32l6.75,3.75L23.54,19H34.71a3.57,3.57,0,0,0,3.57-3.57V3.57A3.57,3.57,0,0,0,34.71,0ZM2.9,2.75a1.29,1.29,0,0,0-1,.49,1.38,1.38,0,0,0-.25,1Q3,13.1,4.24,16.17c.31.75.67,1.11,1.1,1.08.65-.05,1.44-1,2.36-2.73.48-1,1.24-2.5,2.25-4.5a15.64,15.64,0,0,0,3.46,6.66,1.59,1.59,0,0,0,1.24.58,1,1,0,0,0,.83-.56,1.85,1.85,0,0,0,.18-1,29.54,29.54,0,0,1,.44-6,19.07,19.07,0,0,1,1.52-5.65,1.36,1.36,0,0,0,.16-.75,1.21,1.21,0,0,0-.49-.89,1.37,1.37,0,0,0-1-.31,1.21,1.21,0,0,0-1,.69q-1.45,2.64-2.06,8.6A28.66,28.66,0,0,1,11.72,6c-.17-.92-.59-1.36-1.28-1.31a1.5,1.5,0,0,0-1.18.93L5.84,12.19Q5,8.79,4.26,3.88A1.15,1.15,0,0,0,2.9,2.75ZM33.05,3.88a3.6,3.6,0,0,1,2.5,1.82,5.81,5.81,0,0,1,.76,3.08,8.36,8.36,0,0,1-1.23,4.43,4.16,4.16,0,0,1-3.67,2.34,4.32,4.32,0,0,1-.85-.09,3.59,3.59,0,0,1-2.5-1.81,6.08,6.08,0,0,1-.75-3.1,8.26,8.26,0,0,1,1.22-4.42,4.21,4.21,0,0,1,3.68-2.34A4.3,4.3,0,0,1,33.05,3.88Zm-.66,8.47A4.17,4.17,0,0,0,33.58,10a6.09,6.09,0,0,0,.11-1.16,3.9,3.9,0,0,0-.28-1.42c-.23-.61-.55-.94-.92-1-.57-.11-1.11.21-1.63,1A5.13,5.13,0,0,0,30,9.26a5.41,5.41,0,0,0-.11,1.15,3.9,3.9,0,0,0,.28,1.42c.24.61.55.94.93,1A1.5,1.5,0,0,0,32.39,12.35ZM25.74,5.7a3.64,3.64,0,0,0-2.5-1.82,4.32,4.32,0,0,0-.85-.09,4.21,4.21,0,0,0-3.67,2.34,8.26,8.26,0,0,0-1.22,4.42,6.08,6.08,0,0,0,.75,3.1,3.59,3.59,0,0,0,2.5,1.81,4.32,4.32,0,0,0,.85.09,4.19,4.19,0,0,0,3.67-2.34,8.35,8.35,0,0,0,1.22-4.43A5.91,5.91,0,0,0,25.74,5.7Zm-2,4.33a4.17,4.17,0,0,1-1.19,2.32,1.52,1.52,0,0,1-1.27.5c-.37-.08-.68-.41-.92-1a3.9,3.9,0,0,1-.28-1.42,5.41,5.41,0,0,1,.11-1.15,5.13,5.13,0,0,1,.83-1.86c.51-.76,1.06-1.08,1.63-1,.37.08.68.41.92,1a3.9,3.9,0,0,1,.28,1.42A5.38,5.38,0,0,1,23.77,10Z"/></g></g></svg>